<?xml version="1.0" encoding="iso-8859-1"?>
<!-- Generator: Adobe Illustrator 16.0.0, SVG Export Plug-In . SVG Version: 6.00 Build 0)  -->
<!DOCTYPE svg PUBLIC "-//W3C//DTD SVG 1.1//EN" "http://www.w3.org/Graphics/SVG/1.1/DTD/svg11.dtd">
<svg version="1.1" id="Layer_1" xmlns="http://www.w3.org/2000/svg" xmlns:xlink="http://www.w3.org/1999/xlink" x="0px" y="0px"
	 width="361.213px" height="97.308px" viewBox="0 0 361.213 97.308" style="enable-background:new 0 0 361.213 97.308;"
	 xml:space="preserve">
<polygon style="fill:#FFCB05;stroke:#E6E7E8;stroke-miterlimit:10;" points="19.459,75.463 6.013,47.55 19.459,19.637 
	117.535,19.637 130.983,47.55 117.535,75.463 "/>
<polygon style="fill:#2E3192;stroke:#E6E7E8;stroke-miterlimit:10;" points="243.903,75.463 230.454,47.544 243.903,19.626 
	342.004,19.626 355.454,47.544 342.004,75.463 "/>
<polygon style="fill:#00904C;stroke:#E6E7E8;stroke-width:3;stroke-miterlimit:10;" points="101.01,88.635 81.213,47.544 
	101.01,6.452 263.948,6.452 283.745,47.544 263.948,88.635 "/>
<g>
	<path style="fill:#FFFFFF;" d="M95.912,58.699v-3.693h2.834l10.135-28.858h6.334l10.113,28.858h3.264v3.693h-10.564v-3.693h2.706
		l-2.577-7.429h-12.518l-2.512,7.429h3.35v3.693H95.912z M106.863,44.055h10.049l-5.067-14.558L106.863,44.055z"/>
	<path style="fill:#FFFFFF;" d="M130.782,58.699v-3.693h3.221V28.982h-3.221v-3.693h7.214v29.717h3.35v3.693H130.782z"/>
	<path style="fill:#FFFFFF;" d="M145.061,28.982v-3.693h7.837v3.693h-0.043v16.62h3.865l5.282-5.454h-1.331v-3.693h8.438v3.693
		h-2.813l-6.764,6.979l7.387,7.88h2.684v3.693h-4.702l-9.104-9.941h-2.942v6.248h1.868v3.693h-9.512v-3.693h3.65V28.982H145.061z"/>
	<path style="fill:#FFFFFF;" d="M172.223,52.816c0-0.945,0.141-1.782,0.424-2.512c0.282-0.73,0.66-1.363,1.13-1.9
		c0.471-0.537,1.021-0.988,1.652-1.353c0.631-0.365,1.291-0.658,1.979-0.88c0.688-0.222,1.392-0.379,2.109-0.472
		c0.717-0.093,1.402-0.14,2.055-0.14c1.028,0,1.893,0.032,2.592,0.097c0.7,0.064,1.336,0.154,1.908,0.268l0.021-1.825
		c0-0.787-0.115-1.471-0.344-2.05s-0.55-1.059-0.964-1.438s-0.911-0.662-1.489-0.848s-1.225-0.279-1.938-0.279
		c-0.676,0-1.323,0.046-1.94,0.14c-0.619,0.093-1.197,0.215-1.736,0.365c-0.539,0.15-1.035,0.322-1.488,0.516
		c-0.453,0.193-0.837,0.397-1.153,0.612l-1.354-2.77c0.534-0.343,1.119-0.662,1.754-0.956c0.636-0.293,1.303-0.543,2.004-0.751
		c0.7-0.207,1.415-0.372,2.144-0.494s1.447-0.183,2.155-0.183c1.286,0,2.444,0.154,3.475,0.462c1.029,0.308,1.9,0.784,2.615,1.428
		c0.716,0.644,1.266,1.464,1.652,2.458c0.386,0.995,0.579,2.187,0.579,3.575l-0.021,11.122h2.47v3.693h-6.463v-2.191
		c-0.844,0.825-1.775,1.5-2.797,2.026c-1.021,0.525-2.182,0.788-3.481,0.788c-1.105,0-2.12-0.172-3.044-0.515
		c-0.924-0.344-1.721-0.813-2.39-1.406c-0.669-0.594-1.189-1.285-1.561-2.072C172.408,54.541,172.223,53.704,172.223,52.816z
		 M176.216,52.451c0,0.559,0.107,1.045,0.322,1.46c0.214,0.416,0.518,0.763,0.91,1.042c0.392,0.279,0.861,0.49,1.404,0.633
		c0.543,0.143,1.143,0.214,1.799,0.214c0.529,0,1.058-0.06,1.586-0.179c0.529-0.12,1.028-0.283,1.5-0.489
		c0.471-0.206,0.906-0.445,1.307-0.717s0.736-0.555,1.008-0.848l0.021-5.024h-4.629c-0.771,0-1.475,0.086-2.109,0.258
		c-0.637,0.172-1.186,0.422-1.65,0.751c-0.464,0.33-0.825,0.737-1.082,1.224C176.345,51.263,176.216,51.821,176.216,52.451z"/>
	<path style="fill:#FFFFFF;" d="M196.745,58.699v-3.693h3.221V28.982h-3.221v-3.693h7.215v29.717h3.35v3.693H196.745z"/>
	<path style="fill:#FFFFFF;" d="M211,40.147v-3.693h7.258v18.551h3.393v3.693h-10.607v-3.693h3.221V40.147H211z M213.512,28.574
		c0-0.372,0.076-0.727,0.225-1.063c0.148-0.336,0.348-0.629,0.596-0.88c0.25-0.25,0.545-0.451,0.885-0.601
		c0.342-0.15,0.703-0.226,1.086-0.226c0.375,0,0.732,0.075,1.072,0.226c0.338,0.15,0.635,0.351,0.887,0.601
		c0.252,0.251,0.455,0.544,0.605,0.88c0.152,0.336,0.229,0.691,0.229,1.063c0,0.387-0.076,0.751-0.229,1.095
		c-0.15,0.343-0.354,0.647-0.605,0.913c-0.252,0.265-0.549,0.472-0.887,0.623c-0.34,0.15-0.697,0.226-1.072,0.226
		c-0.383,0-0.744-0.075-1.086-0.226c-0.34-0.15-0.635-0.358-0.885-0.623c-0.248-0.265-0.447-0.569-0.596-0.913
		C213.588,29.326,213.512,28.961,213.512,28.574z"/>
	<path style="fill:#FFFFFF;" d="M223.606,40.147v-3.693h7.686v3.693h-2.082l5.496,15.331l5.369-15.331h-1.354v-3.693h7.043v3.693
		h-1.91l-7.279,18.896h-3.951l-7.258-18.896H223.606z"/>
	<path style="fill:#FFFFFF;" d="M248.77,47.491c0-1.589,0.223-3.088,0.666-4.498c0.443-1.41,1.105-2.641,1.986-3.693
		s1.971-1.886,3.273-2.501c1.303-0.615,2.82-0.923,4.553-0.923c1.676,0,3.074,0.254,4.197,0.762
		c1.125,0.508,2.041,1.181,2.748,2.019c0.709,0.837,1.246,1.793,1.611,2.867c0.365,1.073,0.619,2.168,0.762,3.285
		c0.072,0.544,0.119,1.095,0.141,1.653c0.021,0.558,0.031,1.102,0.031,1.632h-15.975c0,0.63,0.047,1.206,0.139,1.729
		c0.094,0.522,0.227,1.02,0.398,1.492c0.529,1.432,1.377,2.509,2.545,3.231c1.166,0.723,2.486,1.084,3.961,1.084
		c1.16,0,2.287-0.161,3.381-0.483c1.096-0.322,2.244-0.827,3.447-1.514l1.609,2.727c-1.459,1.002-2.928,1.747-4.4,2.233
		c-1.475,0.486-3.006,0.73-4.596,0.73c-1.504,0-2.895-0.25-4.176-0.751s-2.389-1.245-3.32-2.233s-1.662-2.219-2.189-3.693
		C249.034,51.17,248.77,49.452,248.77,47.491z M252.936,44.979h11.529c-0.057-0.805-0.189-1.548-0.396-2.229
		s-0.525-1.271-0.955-1.771c-0.43-0.5-0.98-0.889-1.654-1.167c-0.672-0.277-1.502-0.417-2.49-0.417c-0.93,0-1.742,0.128-2.438,0.386
		c-0.693,0.257-1.285,0.625-1.771,1.104s-0.877,1.066-1.17,1.76C253.297,43.34,253.079,44.118,252.936,44.979z"/>
</g>
</svg>
