<?xml version="1.0" encoding="iso-8859-1"?>
<!-- Generator: Adobe Illustrator 16.0.0, SVG Export Plug-In . SVG Version: 6.00 Build 0)  -->
<!DOCTYPE svg PUBLIC "-//W3C//DTD SVG 1.1//EN" "http://www.w3.org/Graphics/SVG/1.1/DTD/svg11.dtd">
<svg version="1.1" id="Layer_1" xmlns="http://www.w3.org/2000/svg" xmlns:xlink="http://www.w3.org/1999/xlink" x="0px" y="0px"
	 width="365.334px" height="126.667px" viewBox="0 0 365.334 126.667" style="enable-background:new 0 0 365.334 126.667;"
	 xml:space="preserve">
<polygon style="fill:#FFCB05;stroke:#FFFFFF;stroke-width:3;stroke-miterlimit:10;" points="22.895,78.217 9.448,50.304 
	22.895,22.391 120.97,22.391 134.418,50.304 120.97,78.217 "/>
<polygon style="fill:#2E3192;stroke:#FFFFFF;stroke-width:3;stroke-miterlimit:10;" points="247.338,78.217 233.889,50.298 
	247.338,22.38 345.439,22.38 358.889,50.298 345.439,78.217 "/>
<polygon style="fill:#00904C;stroke:#FFFFFF;stroke-width:3;stroke-miterlimit:10;" points="104.445,91.389 84.648,50.298 
	104.445,9.206 267.383,9.206 287.18,50.298 267.383,91.389 "/>
<g>
	<path d="M31.462,110.551c0-1.014,0.168-1.972,0.506-2.873s0.809-1.686,1.413-2.352s1.321-1.192,2.151-1.577
		c0.83-0.385,1.729-0.578,2.699-0.578c0.864,0,1.61,0.125,2.237,0.377c0.628,0.251,1.161,0.55,1.599,0.897
		c0.438,0.347,0.816,0.724,1.133,1.131h0.988v1.604h-2.004c-0.417-0.749-0.968-1.337-1.655-1.765
		c-0.687-0.427-1.453-0.641-2.298-0.641c-0.721,0-1.38,0.157-1.977,0.472s-1.108,0.736-1.534,1.266
		c-0.426,0.529-0.757,1.143-0.993,1.839c-0.236,0.696-0.354,1.43-0.354,2.2c0,0.896,0.13,1.69,0.392,2.381
		c0.261,0.691,0.601,1.266,1.021,1.724c0.419,0.458,0.918,0.839,1.496,1.146s1.228,0.459,1.949,0.459
		c0.982,0,1.836-0.242,2.564-0.725c0.727-0.483,1.349-1.276,1.864-2.381l1.641,0.786c-0.236,0.654-0.637,1.285-1.203,1.894
		c-0.566,0.608-1.263,1.099-2.093,1.471c-0.83,0.373-1.748,0.559-2.755,0.559c-0.963,0-1.849-0.181-2.657-0.542
		s-1.53-0.875-2.165-1.542c-0.635-0.667-1.122-1.457-1.459-2.37C31.63,112.498,31.462,111.544,31.462,110.551z"/>
	<path d="M44.953,117.584v-1.604h1.23l4.401-12.53h2.75l4.392,12.53h1.417v1.604h-4.587v-1.604h1.174l-1.119-3.226h-5.436
		l-1.091,3.226h1.455v1.604H44.953z M49.708,111.226h4.363l-2.2-6.321L49.708,111.226z"/>
	<path d="M60.568,117.584v-1.604h1.343v-10.927h-1.343v-1.604h4.587v1.604h-1.417v10.927h4.876c0.1,0,0.199-0.023,0.298-0.07
		c0.1-0.047,0.19-0.107,0.271-0.182c0.081-0.074,0.146-0.16,0.196-0.256c0.05-0.096,0.075-0.194,0.075-0.293v-1.781h1.734v4.186
		H60.568z"/>
	<path d="M72.651,117.584v-1.604h1.343v-10.927h-1.343v-1.604h4.513v1.604h-1.343v10.927h1.343v1.604H72.651z"/>
	<path d="M79.83,117.584v-1.604h1.343v-10.927H79.83v-1.604h5.245c0.645,0,1.257,0.084,1.84,0.251
		c0.582,0.168,1.124,0.404,1.626,0.708c0.501,0.305,0.957,0.669,1.366,1.095c0.409,0.426,0.757,0.899,1.045,1.421
		c0.288,0.522,0.509,1.083,0.665,1.682c0.155,0.6,0.232,1.222,0.232,1.868c0,0.659-0.077,1.291-0.232,1.894
		c-0.155,0.603-0.376,1.169-0.665,1.698s-0.636,1.009-1.045,1.441c-0.409,0.432-0.864,0.802-1.366,1.11
		c-0.502,0.308-1.044,0.545-1.626,0.713c-0.583,0.168-1.195,0.252-1.84,0.252H79.83z M83,115.981h2.2
		c0.653,0,1.267-0.143,1.842-0.429c0.575-0.286,1.077-0.677,1.505-1.171c0.429-0.495,0.768-1.077,1.016-1.745
		s0.373-1.389,0.373-2.16c0-0.759-0.125-1.468-0.373-2.127c-0.249-0.66-0.587-1.233-1.016-1.722
		c-0.429-0.488-0.931-0.873-1.505-1.152c-0.575-0.28-1.189-0.42-1.842-0.42H83V115.981z"/>
	<path d="M92.641,117.584v-1.604h1.23l4.401-12.53h2.75l4.392,12.53h1.417v1.604h-4.587v-1.604h1.174l-1.119-3.226h-5.436
		l-1.091,3.226h1.455v1.604H92.641z M97.396,111.226h4.363l-2.2-6.321L97.396,111.226z"/>
	<path d="M108.256,117.584v-1.604h1.343v-10.927h-1.343v-1.604h5.245c0.645,0,1.257,0.084,1.84,0.251
		c0.582,0.168,1.124,0.404,1.626,0.708c0.501,0.305,0.957,0.669,1.366,1.095c0.409,0.426,0.757,0.899,1.045,1.421
		c0.288,0.522,0.509,1.083,0.665,1.682c0.155,0.6,0.232,1.222,0.232,1.868c0,0.659-0.077,1.291-0.232,1.894
		c-0.155,0.603-0.376,1.169-0.665,1.698s-0.636,1.009-1.045,1.441c-0.409,0.432-0.864,0.802-1.366,1.11
		c-0.502,0.308-1.044,0.545-1.626,0.713c-0.583,0.168-1.195,0.252-1.84,0.252H108.256z M111.426,115.981h2.2
		c0.653,0,1.267-0.143,1.842-0.429c0.575-0.286,1.077-0.677,1.505-1.171c0.429-0.495,0.768-1.077,1.016-1.745
		s0.373-1.389,0.373-2.16c0-0.759-0.125-1.468-0.373-2.127c-0.249-0.66-0.587-1.233-1.016-1.722
		c-0.429-0.488-0.931-0.873-1.505-1.152c-0.575-0.28-1.189-0.42-1.842-0.42h-2.2V115.981z"/>
	<path d="M125.626,105.054v-1.604h4.587v1.604h-1.343l2.652,4.544l2.84-4.544h-1.473v-1.604h4.587v1.604h-1.203l-3.972,6.028v4.899
		h1.464v1.604h-4.597v-1.604h1.306v-4.946l-3.748-5.981H125.626z"/>
	<path d="M142.622,110.551c0-1.014,0.168-1.972,0.506-2.873s0.809-1.686,1.413-2.352s1.321-1.192,2.151-1.577
		c0.83-0.385,1.729-0.578,2.699-0.578c0.864,0,1.61,0.125,2.237,0.377c0.628,0.251,1.161,0.55,1.599,0.897
		c0.438,0.347,0.816,0.724,1.133,1.131h0.988v1.604h-2.004c-0.417-0.749-0.968-1.337-1.655-1.765
		c-0.687-0.427-1.453-0.641-2.298-0.641c-0.721,0-1.38,0.157-1.977,0.472s-1.108,0.736-1.534,1.266
		c-0.426,0.529-0.757,1.143-0.993,1.839c-0.236,0.696-0.354,1.43-0.354,2.2c0,0.896,0.13,1.69,0.392,2.381
		c0.261,0.691,0.601,1.266,1.021,1.724c0.419,0.458,0.918,0.839,1.496,1.146s1.228,0.459,1.949,0.459
		c0.982,0,1.836-0.242,2.564-0.725c0.727-0.483,1.349-1.276,1.864-2.381l1.641,0.786c-0.236,0.654-0.637,1.285-1.203,1.894
		c-0.566,0.608-1.263,1.099-2.093,1.471c-0.83,0.373-1.748,0.559-2.755,0.559c-0.963,0-1.849-0.181-2.657-0.542
		s-1.53-0.875-2.165-1.542c-0.635-0.667-1.122-1.457-1.459-2.37C142.791,112.498,142.622,111.544,142.622,110.551z"/>
	<path d="M156.113,117.584v-1.604h1.23l4.401-12.53h2.75l4.392,12.53h1.417v1.604h-4.587v-1.604h1.174l-1.119-3.226h-5.436
		l-1.091,3.226h1.455v1.604H156.113z M160.868,111.226h4.363l-2.2-6.321L160.868,111.226z"/>
	<path d="M171.729,105.054v-1.622h3.804l6.452,11.606l0.074-0.448v-9.536h-1.557v-1.604h4.559v1.604h-1.174v12.53h-2.415
		l-6.573-11.728v10.125h1.455v1.604h-4.587v-1.604h1.305v-10.927H171.729z"/>
	<path d="M185.919,107.18v-3.729h12.604v3.729h-1.91v-2.2h-3.73v11.001h1.455v1.604h-4.578v-1.604h1.297v-11.001h-3.227v2.2H185.919
		z"/>
	<path d="M200.238,117.584v-1.604h1.344v-10.927h-1.344v-1.604h4.514v1.604h-1.344v10.927h1.344v1.604H200.238z"/>
	<path d="M207.418,117.584v-1.604h1.342v-10.927h-1.342v-1.604h5.244c0.645,0,1.258,0.084,1.84,0.251
		c0.582,0.168,1.125,0.404,1.625,0.708c0.502,0.305,0.957,0.669,1.367,1.095c0.408,0.426,0.756,0.899,1.045,1.421
		c0.287,0.522,0.51,1.083,0.664,1.682c0.154,0.6,0.232,1.222,0.232,1.868c0,0.659-0.078,1.291-0.232,1.894
		c-0.154,0.603-0.377,1.169-0.664,1.698c-0.289,0.529-0.637,1.009-1.045,1.441c-0.41,0.432-0.865,0.802-1.367,1.11
		c-0.5,0.308-1.043,0.545-1.625,0.713s-1.195,0.252-1.84,0.252H207.418z M210.588,115.981h2.199c0.654,0,1.268-0.143,1.842-0.429
		s1.076-0.677,1.506-1.171c0.43-0.495,0.768-1.077,1.016-1.745c0.25-0.668,0.373-1.389,0.373-2.16c0-0.759-0.123-1.468-0.373-2.127
		c-0.248-0.66-0.586-1.233-1.016-1.722s-0.932-0.873-1.506-1.152s-1.188-0.42-1.842-0.42h-2.199V115.981z"/>
	<path d="M220.227,117.584v-1.604h1.232l4.4-12.53h2.75l4.391,12.53h1.418v1.604h-4.588v-1.604h1.176l-1.119-3.226h-5.436
		l-1.092,3.226h1.455v1.604H220.227z M224.982,111.226h4.363l-2.201-6.321L224.982,111.226z"/>
	<path d="M235.844,117.584v-1.604h1.344v-10.927h-1.344v-1.604h5.246c0.643,0,1.256,0.084,1.838,0.251
		c0.582,0.168,1.125,0.404,1.627,0.708c0.502,0.305,0.957,0.669,1.365,1.095c0.408,0.426,0.758,0.899,1.045,1.421
		c0.289,0.522,0.51,1.083,0.664,1.682c0.156,0.6,0.232,1.222,0.232,1.868c0,0.659-0.076,1.291-0.232,1.894
		c-0.154,0.603-0.375,1.169-0.664,1.698c-0.287,0.529-0.637,1.009-1.045,1.441s-0.863,0.802-1.365,1.11
		c-0.502,0.308-1.045,0.545-1.627,0.713s-1.195,0.252-1.838,0.252H235.844z M239.014,115.981h2.201c0.652,0,1.266-0.143,1.842-0.429
		c0.574-0.286,1.076-0.677,1.506-1.171c0.428-0.495,0.768-1.077,1.016-1.745s0.373-1.389,0.373-2.16
		c0-0.759-0.125-1.468-0.373-2.127c-0.248-0.66-0.588-1.233-1.016-1.722c-0.43-0.488-0.932-0.873-1.506-1.152
		c-0.576-0.28-1.189-0.42-1.842-0.42h-2.201V115.981z"/>
	<path d="M254.07,117.584v-1.604h1.344v-10.927h-1.344v-1.604h5.246c0.643,0,1.256,0.084,1.838,0.251
		c0.582,0.168,1.125,0.404,1.627,0.708c0.502,0.305,0.957,0.669,1.365,1.095c0.408,0.426,0.758,0.899,1.045,1.421
		c0.289,0.522,0.51,1.083,0.664,1.682c0.156,0.6,0.232,1.222,0.232,1.868c0,0.659-0.076,1.291-0.232,1.894
		c-0.154,0.603-0.375,1.169-0.664,1.698c-0.287,0.529-0.637,1.009-1.045,1.441s-0.863,0.802-1.365,1.11
		c-0.502,0.308-1.045,0.545-1.627,0.713s-1.195,0.252-1.838,0.252H254.07z M257.24,115.981h2.201c0.652,0,1.266-0.143,1.842-0.429
		c0.574-0.286,1.076-0.677,1.506-1.171c0.428-0.495,0.768-1.077,1.016-1.745s0.373-1.389,0.373-2.16
		c0-0.759-0.125-1.468-0.373-2.127c-0.248-0.66-0.588-1.233-1.016-1.722c-0.43-0.488-0.932-0.873-1.506-1.152
		c-0.576-0.28-1.189-0.42-1.842-0.42h-2.201V115.981z"/>
	<path d="M268.121,117.584v-1.604h1.342v-10.927h-1.342v-1.604h10.125v4h-1.912v-2.396h-5.043v4.531h4.242v1.604h-4.242v4.792h5.043
		v-2.387h1.912v3.99H268.121z"/>
	<path d="M282.861,105.054v-1.604h4.588v1.604h-1.232l3.627,10.907l3.889-10.907h-1.334v-1.604h4.588v1.604h-1.223l-4.576,12.53
		h-2.564l-4.512-12.53H282.861z"/>
	<path d="M298.133,117.584v-1.604h1.342v-10.927h-1.342v-1.604h4.512v1.604h-1.342v10.927h1.342v1.604H298.133z"/>
	<path d="M305.311,117.584v-1.604h1.344v-10.927h-1.344v-1.604h5.246c0.643,0,1.256,0.084,1.838,0.251
		c0.582,0.168,1.125,0.404,1.627,0.708c0.502,0.305,0.957,0.669,1.365,1.095c0.408,0.426,0.758,0.899,1.045,1.421
		c0.289,0.522,0.51,1.083,0.664,1.682c0.156,0.6,0.232,1.222,0.232,1.868c0,0.659-0.076,1.291-0.232,1.894
		c-0.154,0.603-0.375,1.169-0.664,1.698c-0.287,0.529-0.637,1.009-1.045,1.441s-0.863,0.802-1.365,1.11
		c-0.502,0.308-1.045,0.545-1.627,0.713s-1.195,0.252-1.838,0.252H305.311z M308.48,115.981h2.201c0.652,0,1.266-0.143,1.842-0.429
		c0.574-0.286,1.076-0.677,1.506-1.171c0.428-0.495,0.768-1.077,1.016-1.745s0.373-1.389,0.373-2.16
		c0-0.759-0.125-1.468-0.373-2.127c-0.248-0.66-0.588-1.233-1.016-1.722c-0.43-0.488-0.932-0.873-1.506-1.152
		c-0.576-0.28-1.189-0.42-1.842-0.42h-2.201V115.981z"/>
	<path d="M318.121,117.584v-1.604h1.23l4.4-12.53h2.75l4.393,12.53h1.416v1.604h-4.586v-1.604h1.174l-1.119-3.226h-5.436
		l-1.09,3.226h1.455v1.604H318.121z M322.875,111.226h4.363l-2.199-6.321L322.875,111.226z"/>
</g>
<g>
	<path style="fill:#FFFFFF;" d="M99.347,61.453V57.76h2.834l10.135-28.858h6.334l10.113,28.858h3.264v3.693h-10.564V57.76h2.706
		l-2.577-7.429h-12.518l-2.512,7.429h3.35v3.693H99.347z M110.298,46.809h10.049l-5.067-14.558L110.298,46.809z"/>
	<path style="fill:#FFFFFF;" d="M134.217,61.453V57.76h3.221V31.736h-3.221v-3.693h7.214V57.76h3.35v3.693H134.217z"/>
	<path style="fill:#FFFFFF;" d="M148.496,31.736v-3.693h7.837v3.693h-0.043v16.62h3.865l5.282-5.454h-1.331v-3.693h8.438v3.693
		h-2.813l-6.764,6.979l7.387,7.88h2.684v3.693h-4.702l-9.104-9.941h-2.942v6.248h1.868v3.693h-9.512V57.76h3.65V31.736H148.496z"/>
	<path style="fill:#FFFFFF;" d="M175.658,55.57c0-0.945,0.141-1.782,0.424-2.512c0.282-0.73,0.66-1.363,1.13-1.9
		c0.471-0.537,1.021-0.988,1.652-1.353c0.631-0.365,1.291-0.658,1.979-0.88c0.688-0.222,1.392-0.379,2.109-0.472
		c0.717-0.093,1.402-0.14,2.055-0.14c1.028,0,1.893,0.032,2.592,0.097c0.7,0.064,1.336,0.154,1.908,0.268l0.021-1.825
		c0-0.787-0.115-1.471-0.344-2.05s-0.55-1.059-0.964-1.438s-0.911-0.662-1.489-0.848s-1.225-0.279-1.938-0.279
		c-0.676,0-1.323,0.046-1.94,0.14c-0.619,0.093-1.197,0.215-1.736,0.365c-0.539,0.15-1.035,0.322-1.488,0.516
		c-0.453,0.193-0.837,0.397-1.153,0.612l-1.354-2.77c0.534-0.343,1.119-0.662,1.754-0.956c0.636-0.293,1.303-0.543,2.004-0.751
		c0.7-0.207,1.415-0.372,2.144-0.494s1.447-0.183,2.155-0.183c1.286,0,2.444,0.154,3.475,0.462c1.029,0.308,1.9,0.784,2.615,1.428
		c0.716,0.644,1.266,1.464,1.652,2.458c0.386,0.995,0.579,2.187,0.579,3.575l-0.021,11.122h2.47v3.693h-6.463v-2.191
		c-0.844,0.825-1.775,1.5-2.797,2.026c-1.021,0.525-2.182,0.788-3.481,0.788c-1.105,0-2.12-0.172-3.044-0.515
		c-0.924-0.344-1.721-0.813-2.39-1.406c-0.669-0.594-1.189-1.285-1.561-2.072C175.843,57.295,175.658,56.458,175.658,55.57z
		 M179.651,55.205c0,0.559,0.107,1.045,0.322,1.46c0.214,0.416,0.518,0.763,0.91,1.042c0.392,0.279,0.861,0.49,1.404,0.633
		c0.543,0.143,1.143,0.214,1.799,0.214c0.529,0,1.058-0.06,1.586-0.179c0.529-0.12,1.028-0.283,1.5-0.489
		c0.471-0.206,0.906-0.445,1.307-0.717s0.736-0.555,1.008-0.848l0.021-5.024h-4.629c-0.771,0-1.475,0.086-2.109,0.258
		c-0.637,0.172-1.186,0.422-1.65,0.751c-0.464,0.33-0.825,0.737-1.082,1.224C179.78,54.017,179.651,54.575,179.651,55.205z"/>
	<path style="fill:#FFFFFF;" d="M200.18,61.453V57.76h3.221V31.736h-3.221v-3.693h7.215V57.76h3.35v3.693H200.18z"/>
	<path style="fill:#FFFFFF;" d="M214.436,42.901v-3.693h7.258V57.76h3.393v3.693h-10.607V57.76h3.221V42.901H214.436z
		 M216.947,31.328c0-0.372,0.076-0.727,0.225-1.063c0.148-0.336,0.348-0.629,0.596-0.88c0.25-0.25,0.545-0.451,0.885-0.601
		c0.342-0.15,0.703-0.226,1.086-0.226c0.375,0,0.732,0.075,1.072,0.226c0.338,0.15,0.635,0.351,0.887,0.601
		c0.252,0.251,0.455,0.544,0.605,0.88c0.152,0.336,0.229,0.691,0.229,1.063c0,0.387-0.076,0.751-0.229,1.095
		c-0.15,0.343-0.354,0.647-0.605,0.913c-0.252,0.265-0.549,0.472-0.887,0.623c-0.34,0.15-0.697,0.226-1.072,0.226
		c-0.383,0-0.744-0.075-1.086-0.226c-0.34-0.15-0.635-0.358-0.885-0.623c-0.248-0.265-0.447-0.569-0.596-0.913
		C217.023,32.08,216.947,31.715,216.947,31.328z"/>
	<path style="fill:#FFFFFF;" d="M227.041,42.901v-3.693h7.686v3.693h-2.082l5.496,15.331l5.369-15.331h-1.354v-3.693h7.043v3.693
		h-1.91l-7.279,18.896h-3.951l-7.258-18.896H227.041z"/>
	<path style="fill:#FFFFFF;" d="M252.205,50.245c0-1.589,0.223-3.088,0.666-4.498c0.443-1.41,1.105-2.641,1.986-3.693
		s1.971-1.886,3.273-2.501c1.303-0.615,2.82-0.923,4.553-0.923c1.676,0,3.074,0.254,4.197,0.762
		c1.125,0.508,2.041,1.181,2.748,2.019c0.709,0.837,1.246,1.793,1.611,2.867c0.365,1.073,0.619,2.168,0.762,3.285
		c0.072,0.544,0.119,1.095,0.141,1.653c0.021,0.558,0.031,1.102,0.031,1.632h-15.975c0,0.63,0.047,1.206,0.139,1.729
		c0.094,0.522,0.227,1.02,0.398,1.492c0.529,1.432,1.377,2.509,2.545,3.231c1.166,0.723,2.486,1.084,3.961,1.084
		c1.16,0,2.287-0.161,3.381-0.483c1.096-0.322,2.244-0.827,3.447-1.514l1.609,2.727c-1.459,1.002-2.928,1.747-4.4,2.233
		c-1.475,0.486-3.006,0.73-4.596,0.73c-1.504,0-2.895-0.25-4.176-0.751s-2.389-1.245-3.32-2.233s-1.662-2.219-2.189-3.693
		C252.469,53.924,252.205,52.206,252.205,50.245z M256.371,47.732H267.9c-0.057-0.805-0.189-1.548-0.396-2.229
		s-0.525-1.271-0.955-1.771c-0.43-0.5-0.98-0.889-1.654-1.167c-0.672-0.277-1.502-0.417-2.49-0.417c-0.93,0-1.742,0.128-2.438,0.386
		c-0.693,0.257-1.285,0.625-1.771,1.104s-0.877,1.066-1.17,1.76C256.732,46.094,256.514,46.872,256.371,47.732z"/>
</g>
</svg>
